<svg width="34" height="41" viewBox="0 0 34 41" fill="none" xmlns="http://www.w3.org/2000/svg">
<path id="Vector" d="M10.7334 40.1493C8.82128 40.1493 0.856934 40.1493 0.856934 40.1493V32.051C0.856934 32.051 13.2335 32.7036 15.1235 30.8136C16.3605 29.5763 17.2229 27.7766 17.7104 25.4146L21.141 9.16173H12.0585H10.7334L4.71911 0.78186L31.939 0.781989C32.3512 0.781989 32.6513 0.913211 32.8387 1.17566C33.0636 1.43811 33.1388 1.77555 33.0636 2.18798L28.0585 25.6958C27.421 28.9577 26.3151 31.7136 24.7403 33.9631C23.2032 36.175 21.1786 37.8622 18.6666 39.0244C16.1918 40.1493 14.3327 40.1493 10.7334 40.1493Z" fill="white"/>
</svg>
