<svg width="34" height="41" viewBox="0 0 34 41" fill="none" xmlns="http://www.w3.org/2000/svg">
<path id="Vector" d="M1.62285 40.1492C1.21029 40.1492 0.216797 40.1492 0.216797 40.1492C0.216797 40.1492 0.216797 39.1557 0.216797 38.7431V2.18786C0.216797 1.77542 0.216797 0.78186 0.216797 0.78186C0.216797 0.78186 1.21029 0.78186 1.62285 0.78186H16.2448C19.9193 0.78186 23.0498 1.38175 25.6367 2.58146C28.2239 3.74364 30.2109 5.46844 31.5983 7.75554C32.9854 10.005 33.7354 12.7982 33.8478 16.135C33.8851 17.785 33.904 19.2283 33.904 20.4657C33.904 21.7027 33.8851 23.1274 33.8478 24.7397C33.6978 28.2266 32.9478 31.1136 31.5983 33.4004C30.2858 35.6875 28.355 37.3936 25.8054 38.5182C23.2934 39.6055 20.2004 40.1492 16.5262 40.1492H1.62285ZM10.2835 32.0509H16.2448C17.8571 32.0509 19.188 31.807 20.238 31.3196C21.325 30.7949 22.1312 29.9887 22.6562 28.9014C23.2185 27.8141 23.5186 26.3894 23.5559 24.6273C23.6311 23.54 23.6684 22.5651 23.6684 21.7027C23.7059 20.8406 23.7059 19.9782 23.6684 19.1158C23.6684 18.2534 23.6311 17.2975 23.5559 16.2475C23.481 13.6982 22.8063 11.8423 21.5313 10.6798C20.2943 9.48002 18.4384 8.88013 15.9636 8.88013H10.2835V32.0509Z" fill="white"/>
</svg>
