<svg width="34" height="41" viewBox="0 0 34 41" fill="none" xmlns="http://www.w3.org/2000/svg">
<path id="Vector" d="M3.55314 40.2598L0.640137 32.0921V2.29849C0.640137 1.88596 0.640137 0.892395 0.640137 0.892395C0.640137 0.892395 1.63363 0.892395 2.04587 0.892395H8.00749C8.64465 0.892395 9.27313 0.892395 9.27313 0.892395C9.27313 0.892395 9.84441 1.81096 9.9196 1.96092L23.6419 23.613V2.29849C23.6419 1.88596 23.6419 0.892395 23.6419 0.892395C23.6419 0.892395 24.6353 0.892395 25.0479 0.892395H31.7964C32.209 0.892395 33.2025 0.892395 33.2025 0.892395C33.2025 0.892395 33.2025 1.88596 33.2025 2.29849V38.8538C33.2025 39.2287 33.2025 40.2598 33.2025 40.2598C33.2025 40.2598 32.209 40.2598 31.7964 40.2598H25.7789C25.179 40.2598 24.6003 40.2598 24.6003 40.2598C24.6003 40.2598 23.9979 39.3036 23.923 39.1912L10.2008 18.3827V38.8538C10.2008 39.266 10.2008 40.2598 10.2008 40.2598H3.55314Z" fill="white"/>
</svg>
