<svg width="99" height="53" viewBox="0 0 99 53" fill="none" xmlns="http://www.w3.org/2000/svg">
<path id="Vector" d="M18.0419 7.13198L4.55037 39.9707C4.3971 40.4301 4.12943 40.7935 3.74643 41.0615C3.36375 41.3295 2.96179 41.4635 2.54087 41.4635C1.81374 41.4635 1.2778 41.272 0.933359 40.8893C0.588913 40.5066 0.416675 40.0475 0.416675 39.5115C0.378439 39.2435 0.41669 38.9566 0.53172 38.6504L15.4011 2.48164C15.5922 1.94576 15.8795 1.56304 16.2622 1.3334C16.6831 1.06546 17.1426 0.950658 17.64 0.988926C18.1377 0.988926 18.5775 1.12288 18.9605 1.39079C19.3814 1.65873 19.6684 2.02232 19.8217 2.48164L34.6348 38.3059C34.7472 38.6122 34.805 38.9184 34.805 39.2246C34.805 39.9135 34.5769 40.4684 34.1174 40.8893C33.658 41.272 33.141 41.4635 32.5668 41.4635C32.1073 41.4635 31.6864 41.3295 31.3037 41.0615C30.921 40.7935 30.6338 40.4109 30.4426 39.9135L16.7788 7.07447L18.0419 7.13198ZM7.42095 30.6128L9.37291 26.1347H26.4236L27.2851 30.6128H7.42095ZM52.0595 11.2081C54.6621 11.2081 56.998 11.8588 59.0641 13.1601C61.1301 14.4614 62.7591 16.2601 63.9448 18.5565C65.169 20.8529 65.7827 23.4938 65.7827 26.4794C65.7827 29.4265 65.169 32.0674 63.9448 34.402C62.7591 36.6984 61.1301 38.5164 59.0641 39.8559C57.0366 41.1573 54.7392 41.8079 52.1751 41.8079C50.7582 41.8079 49.4215 41.5975 48.1555 41.1765C46.9314 40.7171 45.8035 40.1429 44.7689 39.454C43.7761 38.7269 42.931 37.9233 42.2434 37.0429C41.5558 36.1242 41.0578 35.2249 40.7493 34.3445L42.0153 33.5409V50.4769C42.0153 51.1276 41.8032 51.6825 41.3823 52.1419C40.9614 52.6011 40.4055 52.8308 39.7179 52.8308C39.0656 52.8308 38.513 52.6011 38.0535 52.1419C37.6326 51.7207 37.4205 51.1658 37.4205 50.4769V13.7915C37.4205 13.1408 37.6326 12.6049 38.0535 12.184C38.513 11.7248 39.0656 11.4951 39.7179 11.4951C40.4055 11.4951 40.9614 11.7248 41.3823 12.184C41.8032 12.6049 42.0153 13.1408 42.0153 13.7915V18.901L41.1542 18.4418C41.4209 17.485 41.8803 16.5663 42.5294 15.6859C43.2202 14.8059 44.0428 14.0402 45.0003 13.3895C45.9931 12.7006 47.0856 12.165 48.2712 11.782C49.4954 11.3993 50.7582 11.2081 52.0595 11.2081ZM51.5454 15.4565C49.6304 15.4565 47.9274 15.935 46.4333 16.8918C44.981 17.8487 43.8307 19.15 42.9889 20.7958C42.1856 22.4415 41.7839 24.336 41.7839 26.4794C41.7839 28.5843 42.1856 30.4788 42.9889 32.1628C43.8307 33.8471 44.981 35.1674 46.4333 36.1242C47.9274 37.0811 49.6304 37.5595 51.5454 37.5595C53.4572 37.5595 55.1409 37.0811 56.5964 36.1242C58.0519 35.1674 59.199 33.8471 60.0408 32.1628C60.8827 30.4788 61.3036 28.5843 61.3036 26.4794C61.3036 24.336 60.8827 22.4415 60.0408 20.7958C59.199 19.15 58.0519 17.8487 56.5964 16.8918C55.1409 15.935 53.4572 15.4565 51.5454 15.4565ZM84.4541 11.2081C87.0567 11.2081 89.3926 11.8588 91.4587 13.1601C93.5247 14.4614 95.1538 16.2601 96.3394 18.5565C97.5636 20.8529 98.1773 23.4938 98.1773 26.4794C98.1773 29.4265 97.5636 32.0674 96.3394 34.402C95.1538 36.6984 93.5247 38.5164 91.4587 39.8559C89.4312 41.1573 87.1338 41.8079 84.5698 41.8079C83.1528 41.8079 81.8129 41.5975 80.5502 41.1765C79.326 40.7171 78.1982 40.1429 77.1635 39.454C76.1675 38.7269 75.3256 37.9233 74.638 37.0429C73.9504 36.1242 73.4524 35.2249 73.1439 34.3445L74.4099 33.5409V50.4769C74.4099 51.1276 74.1978 51.6825 73.7769 52.1419C73.356 52.6011 72.8001 52.8308 72.1125 52.8308C71.4602 52.8308 70.9076 52.6011 70.4481 52.1419C70.0272 51.7207 69.8151 51.1658 69.8151 50.4769V13.7915C69.8151 13.1408 70.0272 12.6049 70.4481 12.184C70.9076 11.7248 71.4602 11.4951 72.1125 11.4951C72.8001 11.4951 73.356 11.7248 73.7769 12.184C74.1978 12.6049 74.4099 13.1408 74.4099 13.7915V18.901L73.5488 18.4418C73.8155 17.485 74.2749 16.5663 74.924 15.6859C75.6148 14.8059 76.4374 14.0402 77.3949 13.3895C78.3877 12.7006 79.4802 12.165 80.6658 11.782C81.89 11.3993 83.1528 11.2081 84.4541 11.2081ZM83.94 15.4565C82.025 15.4565 80.322 15.935 78.8279 16.8918C77.3756 17.8487 76.2253 19.15 75.3835 20.7958C74.5802 22.4415 74.1786 24.336 74.1786 26.4794C74.1786 28.5843 74.5802 30.4788 75.3835 32.1628C76.2253 33.8471 77.3756 35.1674 78.8279 36.1242C80.322 37.0811 82.025 37.5595 83.94 37.5595C85.8518 37.5595 87.5355 37.0811 88.991 36.1242C90.4466 35.1674 91.5936 33.8471 92.4355 32.1628C93.2773 30.4788 93.6982 28.5843 93.6982 26.4794C93.6982 24.336 93.2773 22.4415 92.4355 20.7958C91.5936 19.15 90.4466 17.8487 88.991 16.8918C87.5355 15.935 85.8518 15.4565 83.94 15.4565Z" fill="white"/>
</svg>
