<svg width="30" height="41" viewBox="0 0 30 41" fill="none" xmlns="http://www.w3.org/2000/svg">
<path id="Vector" d="M2.03301 40.1493C1.62077 40.1493 0.626953 40.1493 0.626953 40.1493C0.626953 40.1493 0.626953 39.1558 0.626953 38.7433V2.18798C0.626953 1.77555 0.626953 0.781989 0.626953 0.781989C0.626953 0.781989 1.62077 0.781989 2.03301 0.781989L27.2389 0.78186L29.7028 4.2704V7.47452C29.7028 7.88676 29.7028 8.88026 29.7028 8.88026C29.7028 8.88026 28.7092 8.88026 28.2967 8.88026H10.3566V16.4728H27.0593C27.4719 16.4728 28.4654 16.4728 28.4654 16.4728C28.4654 16.4728 28.4654 17.5226 28.4654 17.9348V22.8277C28.4654 23.2027 28.4654 24.2338 28.4654 24.2338C28.4654 24.2338 27.4719 24.2338 27.0593 24.2338H10.3566V32.051H29.8573V40.1493H2.03301Z" fill="white"/>
</svg>
