<svg width="35" height="41" viewBox="0 0 35 41" fill="none" xmlns="http://www.w3.org/2000/svg">
<path id="Vector" d="M0.694336 40.1492V0.781989L19.2533 0.78186C22.4776 0.78186 25.1211 1.23179 27.1833 2.13163C29.2451 3.0313 30.7636 4.3249 31.7385 6.0121C32.7509 7.66172 33.257 9.63007 33.257 11.9172C33.257 13.267 32.9945 14.4668 32.4695 15.5165C31.982 16.529 31.3635 17.3724 30.6136 18.0471C29.9012 18.7222 29.2265 19.2097 28.589 19.5094C30.0137 20.1842 31.2697 21.2905 32.357 22.8276C33.4819 24.3648 34.0442 26.1644 34.0442 28.2266C34.0442 30.701 33.4819 32.8381 32.357 34.6377C31.2697 36.3998 29.6577 37.7683 27.5206 38.7431C25.4209 39.6804 22.834 40.1492 19.7597 40.1492H0.694336ZM10.7613 32.8381H18.6348C20.2471 32.8381 21.4655 32.3696 22.2903 31.432C23.1151 30.4948 23.5277 29.4264 23.5277 28.2266C23.5277 26.9144 23.0965 25.8081 22.2341 24.9084C21.4093 24.0088 20.2095 23.5586 18.6348 23.5586H10.7613V32.8381ZM10.7613 16.4162H18.1287C19.6659 16.4162 20.8094 16.0226 21.5593 15.2353C22.3466 14.4478 22.7402 13.4357 22.7402 12.1983C22.7402 10.9985 22.3466 10.0237 21.5593 9.27406C20.8094 8.48652 19.6659 8.09292 18.1287 8.09292H10.7613V16.4162Z" fill="white"/>
</svg>
