<svg width="50" height="21" viewBox="0 0 50 21" fill="none" xmlns="http://www.w3.org/2000/svg">
<path id="Vector" d="M36.3903 13.8256C35.7439 14.2208 32.3739 12.5404 32.3739 12.5404C32.3739 12.5404 24.9215 9.07886 21.1595 7.33157L20.5709 7.05813C19.2519 6.44539 18.2536 5.96022 17.2527 5.47343C16.2435 4.98279 15.2306 4.49022 13.8838 3.86462C11.3208 4.82727 10.4951 4.37582 9.69668 3.93948C9.14628 3.63841 8.60885 3.34442 7.5242 3.52596C7.19781 3.85306 6.85288 4.22674 6.4962 4.6393C6.49321 4.65794 6.49016 4.67626 6.48704 4.69489L6.43605 4.99724L6.19185 5.18232C6.08344 5.26457 5.97362 5.3359 5.86305 5.3976C5.78282 5.49688 5.7022 5.59777 5.6213 5.70027L5.62448 5.7112L5.67213 5.87924L5.67438 5.88728L5.71541 6.03187C5.7967 6.3188 5.88121 6.61697 5.97066 6.93057L6.13302 7.50026L5.62586 7.80551C5.53486 7.86013 5.4438 7.9109 5.35281 7.95781C5.34568 7.96166 5.33764 7.96552 5.33048 7.96937L5.32457 7.97226C5.18348 8.04392 5.04252 8.10625 4.90195 8.16088C4.8524 8.18015 4.80288 8.19815 4.75347 8.2155C4.80568 8.28137 4.85539 8.34917 4.90195 8.41921C5.0634 8.66244 5.18692 8.93331 5.24475 9.23438C5.33671 9.71346 5.24626 10.1761 5.02138 10.6141C4.95535 10.7426 4.87769 10.8689 4.78965 10.9929L4.78643 10.9974C4.7685 11.0225 4.74977 11.0482 4.73101 11.0732L4.5832 11.2696L4.34919 11.3444C4.11717 11.4187 3.8856 11.4668 3.66216 11.4999C3.64954 11.5016 3.63694 11.5035 3.62438 11.5054C3.61487 11.5067 3.60539 11.508 3.59591 11.5093L3.58386 11.5109L3.57387 11.5122L3.55954 11.5141C3.55443 11.5481 3.54887 11.5816 3.54286 11.6143C3.53557 11.6545 3.52766 11.6937 3.51908 11.7323C3.47082 11.9491 3.40235 12.1419 3.31582 12.3145C3.1712 12.6024 2.97613 12.8324 2.74067 13.0191C2.68647 13.0622 2.63162 13.1017 2.57719 13.138C2.43707 13.2315 2.29951 13.3041 2.18179 13.3629L2.16929 13.3693C2.10866 13.3995 2.05609 13.4249 2.00847 13.4481C1.90935 13.4963 1.83059 13.5345 1.74503 13.583L1.66791 13.627L1.58286 13.6524C1.54402 13.664 1.506 13.6755 1.46873 13.6868L1.46565 13.6878L1.45996 13.6894C1.40299 13.7067 1.3449 13.7237 1.29076 13.7398C1.03975 13.8134 0.813834 13.8719 0.562601 13.8963C-0.0665271 15.1365 10.941 9.78382 22.3853 16.7039C33.8298 23.6237 50.7941 18.3278 49.6303 13.2315C49.2136 13.2231 48.8865 13.1258 48.4704 13.0014L48.4087 12.9831L48.3862 12.9767L48.3473 12.9648L48.2606 12.9394L48.1822 12.8951C48.0912 12.8433 48.008 12.8032 47.9029 12.7527C47.8837 12.7434 47.8631 12.7335 47.8419 12.7232C47.8085 12.7071 47.7728 12.6894 47.7336 12.6702C47.5598 12.5841 47.3435 12.47 47.1366 12.3074C46.6938 11.9588 46.3883 11.463 46.2822 10.7291C46.0082 10.6947 45.7206 10.6414 45.4324 10.5498L45.1946 10.4743L45.0449 10.2767C44.5982 9.68711 44.3807 9.0477 44.5096 8.38033C44.5899 7.96456 44.7933 7.60404 45.0513 7.29141C44.7335 7.18409 44.4128 7.04046 44.0928 6.84928L43.58 6.54307L43.7008 6.12248C41.0416 4.15091 37.7858 2.59415 33.8147 0.695524L33.6402 0.612305C34.6193 1.08046 34.9489 1.58492 35.4036 2.28056C35.5055 2.43672 35.6144 2.60315 35.7378 2.78052C36.6172 4.88125 37.0233 6.03315 37.0233 9.15019L37.0211 9.21606C37.0063 9.64919 37.0323 10.0068 37.2698 10.4377C37.4375 10.7413 37.5888 11.1211 37.6081 11.5896C37.6489 12.5834 37.0365 13.4304 36.3903 13.8256Z" fill="white"/>
</svg>
