<svg width="34" height="32" viewBox="0 0 34 32" fill="none" xmlns="http://www.w3.org/2000/svg">
<path id="Vector" d="M14.4452 23.1638C14.4471 23.8508 14.6234 24.2463 14.6478 24.7864C14.6721 25.3269 14.424 26.4206 14.1076 27.2207C13.8409 27.8951 13.4923 28.3212 13.2177 29.0766C13.0287 29.5968 12.936 29.9823 12.6223 30.438C12.2178 31.0253 11.4069 31.5478 11.4069 31.5478C11.4069 31.5478 10.5943 31.9125 9.92157 31.8858C9.24046 31.8591 9.15017 31.5478 8.65015 31.345C6.99099 30.6722 5.67914 31.3013 4.31164 29.8638C4.63282 28.8182 4.5282 27.7778 3.71792 26.9321L0.978031 26.4203C0.953707 25.9672 0.931826 25.582 0.909912 25.1752C1.7129 24.2296 2.50127 23.2987 3.44053 22.1925L4.60059 20.976C4.12839 19.7264 4.25984 19.2611 5.24074 18.5935C5.87116 18.1648 6.61175 17.5829 7.28843 17.1177C8.97776 18.0186 10.0311 18.3133 11.9711 18.8467C12.4652 18.9273 12.7478 19.007 13.2299 18.8467C13.6693 18.4791 17.2218 2.0154 17.2134 1.36378C17.2051 0.712162 18.1825 0.0586128 19.2432 0.687741C20.9567 1.70437 21.4435 2.44339 23.2901 5.31398C27.3759 2.77273 30.1806 1.24168 33.485 0.330444L33.6199 0.581067C33.6199 0.581067 32.0526 1.80301 31.7971 2.00094C31.3849 2.31936 30.9126 2.72903 30.5141 3.15027C30.0299 3.66244 29.5528 3.90728 29.164 4.43488C28.2492 5.67675 27.748 6.80712 25.2931 6.66671C24.5474 6.66671 23.9292 7.02304 23.2223 7.54517C22.6455 7.97123 22.4781 9.07172 21.9788 8.89725C21.2742 8.65145 20.1165 9.23559 20.049 9.70888C19.9816 10.1822 18.8608 10.3563 18.5636 10.8193C18.2667 11.282 18.5 12.7366 18.338 13.9528C18.1279 15.5326 18.0861 16.468 17.485 17.9435C17.0107 19.783 16.9079 19.7364 16.2007 20.8648C15.6436 21.7536 14.4436 22.5366 14.4452 23.1638Z" fill="white"/>
</svg>
