<svg width="45" height="27" viewBox="0 0 45 27" fill="none" xmlns="http://www.w3.org/2000/svg">
<path id="Vector" d="M5.22645 22.7015C5.05851 22.3999 4.99036 22.2662 4.90762 22.1397C4.83217 22.0254 4.74211 21.9233 4.47195 21.5755C4.11176 22.9277 4.06684 22.999 3.76992 24.1274C2.57772 25.1797 1.60698 26.0389 0.664795 26.8673C1.68865 21.6309 3.59153 14.6423 9.08158 8.22422C14.5716 1.80618 23.2958 -0.339409 31.2119 0.251418C36.5097 0.646824 41.3586 2.49247 44.1444 4.47856C42.9179 4.74416 41.6504 5.01467 40.0955 5.34851C40.0955 5.34851 36.4037 2.83666 31.2119 2.55021C22.6335 2.07692 16.8842 4.38927 11.7362 9.58099C7.47714 13.8761 5.22645 22.7015 5.22645 22.7015Z" fill="white"/>
</svg>
