<svg width="32" height="25" viewBox="0 0 32 25" fill="none" xmlns="http://www.w3.org/2000/svg">
<path id="Vector" d="M23.5906 0.600344C26.4542 0.899999 28.5128 2.32032 30.6858 3.212C31.9704 5.8123 29.9362 8.14519 26.4824 10.7122C19.6408 15.7974 12.7213 20.2642 5.94537 24.8573C2.08902 22.9943 0.27962 19.8436 0.746003 15.7853C0.850173 14.8789 1.03669 14.3881 1.31771 13.5202C2.21886 10.737 4.27346 8.38791 6.00597 6.62365C8.0694 4.79812 9.12115 3.9077 11.4453 2.70211C12.5673 2.12002 13.2184 1.82155 14.4159 1.41744C15.3978 1.08613 15.9643 0.937175 16.9816 0.741304C19.5167 0.253264 20.7271 0.300689 23.5906 0.600344Z" fill="white"/>
</svg>
