<svg width="49" height="38" viewBox="0 0 49 38" fill="none" xmlns="http://www.w3.org/2000/svg">
<path id="Vector" d="M17.3826 23.7546C16.6092 22.6525 15.9939 21.6166 15.2179 20.7218C14.6807 20.1052 13.9825 19.5467 13.2431 19.2029C11.9711 18.6104 11.1199 19.0519 10.8037 20.4268C10.2713 22.7502 9.85533 25.1029 9.35431 27.4359C8.76088 30.2056 8.13827 32.9676 7.50593 35.7299C7.37461 36.3002 7.15085 36.8513 6.93442 37.5219C4.47802 37.144 2.29889 36.3346 0.0273438 34.8228C0.55754 34.3939 0.939355 34.089 1.39658 33.7211C2.8145 34.2255 4.24211 34.7351 5.81564 35.2958C7.76616 30.1468 8.51038 24.8982 9.67292 19.415C8.04008 20.5952 7.74839 20.8201 6.72283 21.4971C5.81808 22.0944 4.94739 22.7428 3.97944 23.4279C3.69489 23.0111 3.48575 22.7088 3.23281 22.3357C3.79948 21.9434 4.28832 21.6067 4.77472 21.2728C11.1588 16.8602 17.5455 12.4523 23.9248 8.03231C24.4964 7.63739 25.0192 7.17174 25.5542 6.72557C27.0329 5.49199 29.3755 2.74533 28.3628 0.716919C30.1454 0.811995 35.5216 3.73442 37.6802 5.44984C39.8384 7.16525 41.7984 10.0475 41.7984 10.0475C43.1264 10.8155 44.7969 11.7429 46.1416 12.5206C46.1393 12.6278 46.1368 12.7351 46.1345 12.8448C36.7149 13.9468 27.6922 16.3603 19.2115 20.9631C18.3992 18.7277 17.1297 16.9795 15.1305 15.8825L14.8436 16.1508C15.3979 16.6308 15.9961 17.0723 16.4996 17.6038C17.0079 18.1426 17.487 18.7325 17.8569 19.3735C18.2482 20.0515 18.494 20.8146 18.8394 21.6288C19.1482 21.5189 19.484 21.4434 19.7732 21.2898C27.3053 17.2551 35.3433 14.8366 43.7925 13.7249L43.9008 13.7106C44.8984 13.5787 45.9006 13.4462 46.9031 13.4226C47.3796 13.4104 47.8612 13.6762 48.3403 13.8176L48.3111 14.2126C47.3092 14.3977 46.3022 14.5709 45.3026 14.7685C40.9688 15.6242 36.6057 16.3506 32.313 17.3817C27.2154 18.6056 22.3999 20.6022 17.9661 23.4548C17.8058 23.557 17.6258 23.6303 17.3826 23.7546Z" fill="white"/>
</svg>
