<svg width="81" height="78" viewBox="0 0 81 78" fill="none" xmlns="http://www.w3.org/2000/svg">
<path id="Vector" fill-rule="evenodd" clip-rule="evenodd" d="M70.6361 64.6731C76.9589 57.8703 80.9474 49.074 80.2488 38.4068C80.2488 26.7294 76.3224 16.1351 66.845 8.48504C59.5702 2.61301 49.2667 -0.0813138 39.1319 0.200187C33.2914 0.200187 27.0724 1.73278 21.9587 3.76617C14.9415 6.55644 9.59314 10.4625 5.63037 16.247C1.35221 22.4919 -0.000147231 29.4213 1.20222e-08 37.6427C0.00018825 48.1528 3.08369 57.3256 9.85331 63.8245C17.2802 71.4887 29.0361 77.6711 41.1205 77.6711C53.0726 77.6711 63.476 72.3768 70.6361 64.6731ZM14.5843 12.2757C7.7536 18.5874 5.37757 27.9491 5.37757 36.5111C5.37757 42.1954 6.22486 47.1523 9.85331 52.4697C15.2961 60.4462 28.8092 66.7038 39.0904 66.7038C47.4217 66.7038 56.8692 64.2897 63.4613 58.7156C70.8913 52.4327 74.9697 42.464 74.9697 33.6678C74.9697 24.826 71.344 17.3418 64.1383 11.7341C56.2854 5.37064 48.456 3.20435 40.1736 3.20435C35.5174 3.20435 29.5911 4.25366 24.7388 6.04761C20.6485 7.55979 17.5173 9.56549 14.5843 12.2757Z" fill="white"/>
</svg>
