<svg width="7" height="28" viewBox="0 0 7 28" fill="none" xmlns="http://www.w3.org/2000/svg">
<path id="Vector" d="M5.95735 16.4521C6.06833 15.7179 5.99819 14.5519 5.99819 14.5519C5.99819 14.5519 5.97126 12.9482 5.87326 12.1012C5.58212 9.58441 5.33474 7.71919 4.55261 5.01536C4.13079 3.55692 4.01197 3.23722 3.27829 1.34277C3.09324 0.865298 2.97307 0.629455 2.87572 0.613711C2.7674 0.591219 2.68756 0.838949 2.57911 1.32574C2.56703 1.38004 2.55463 1.43691 2.54178 1.49699C2.53888 1.51049 2.53506 1.53073 2.53037 1.55772C2.41746 2.20934 1.80806 6.73277 1.80806 12.7461C1.80806 19.6035 1.70778 21.4633 1.61142 23.2501C1.58536 23.733 1.55959 24.2105 1.5362 24.7802L1.47367 25.952L1.46053 25.9536C1.20637 25.9832 0.950963 26.024 0.693496 26.0786C0.616028 26.0953 0.538335 26.113 0.460449 26.1319C0.473816 26.3938 0.484483 26.6129 0.49515 26.8324C0.49952 26.9221 0.504018 27.0143 0.508549 27.1068L0.514365 27.2244L0.517418 27.2858C0.611369 27.3044 0.704967 27.3224 0.798308 27.3394C0.809008 27.3414 0.819707 27.3433 0.830375 27.3452C2.26918 27.6045 3.64677 27.6354 5.22273 27.2321C5.13383 26.9057 5.06863 26.6628 5.00781 26.4359C4.97041 26.2965 4.93449 26.1625 4.89583 26.0195L4.83485 26.014C4.57937 25.9922 4.323 25.9706 4.07109 25.9517L4.05538 25.9507L3.97242 24.8364C3.9533 24.439 3.93505 24.0723 3.91821 23.7337C3.78981 21.1526 3.74294 20.2102 4.00098 19.592C4.07793 19.4075 4.27997 19.2369 4.50901 19.0438C4.71641 18.8687 4.94599 18.675 5.12486 18.4353C5.14803 18.4041 5.17046 18.3742 5.19224 18.3453C5.4357 18.0204 5.5961 17.8064 5.74924 17.4022C5.86349 17.1008 5.89283 16.8971 5.93376 16.6131C5.94103 16.5626 5.94877 16.509 5.95735 16.4521Z" fill="white"/>
</svg>
