<svg width="57" height="44" viewBox="0 0 57 44" fill="none" xmlns="http://www.w3.org/2000/svg">
<path id="Vector" fill-rule="evenodd" clip-rule="evenodd" d="M47.4334 27.5797L47.6188 30.5071L53.4037 30.8439L53.3963 30.8455L53.3908 30.8468C53.306 30.867 53.2212 30.8908 53.136 30.9146C52.9223 30.9743 52.7087 31.0344 52.4934 31.036C51.8614 31.044 51.2294 31.0479 50.597 31.0505C50.2982 31.0518 49.9997 31.0527 49.7009 31.0534L49.6925 31.0537C49.0139 31.0556 48.3324 31.0575 47.6538 31.0633L47.8292 33.8333C48.157 33.8215 48.485 33.8076 48.8128 33.7929C49.126 33.7787 49.4403 33.7639 49.7536 33.7488L49.761 33.7485L49.787 33.7476C49.8811 33.7431 49.9756 33.7386 50.0697 33.7341C50.5967 33.709 51.124 33.6849 51.6509 33.6656C51.8151 33.6602 51.979 33.6949 52.1422 33.7296C52.2094 33.744 52.2768 33.7582 52.3437 33.7694L52.3527 33.771C52.3562 33.8481 52.3572 33.9243 52.3584 34.0008C52.3591 34.0387 52.3597 34.0766 52.3604 34.1151L52.2939 34.1184C52.0857 34.1283 51.8771 34.138 51.6689 34.1479L51.3614 34.1624C50.8981 34.1839 50.4351 34.2057 49.9724 34.2286C49.5952 34.2472 49.2183 34.2665 48.8414 34.287C48.5159 34.3057 48.1907 34.3253 47.8617 34.3455L48.0162 36.7862L48.0754 36.7836C48.5461 36.7621 49.0133 36.7406 49.4734 36.7676C49.9036 36.7926 50.3274 36.8601 50.7432 37.0092C50.2943 37.1409 49.8378 37.2132 49.378 37.2543C48.9371 37.2935 48.4934 37.3045 48.0493 37.3122L48.2273 40.1243C48.416 40.1571 48.6026 40.2017 48.7864 40.2644C49.1177 40.3772 49.4387 40.5491 49.7414 40.8174C49.3947 40.784 49.048 40.7499 48.6977 40.7152C48.5532 40.7011 48.4082 40.6866 48.262 40.6721L48.2743 40.8656C48.228 40.7962 48.1817 40.7274 48.1348 40.6593L48.0773 40.6535L48.0285 40.6487L47.8559 40.6313C47.5915 40.605 47.3232 40.578 47.0491 40.5504C47.0597 40.6374 47.0732 40.7191 47.0896 40.7955C47.1397 41.0256 47.2159 41.2081 47.311 41.3569C47.5317 41.7019 47.8549 41.8658 48.1875 42.0261L48.2219 42.0429C48.2653 42.0637 48.3096 42.0853 48.353 42.1065C48.3633 42.1116 48.3735 42.1168 48.3841 42.1219C48.3954 42.1277 48.4066 42.1335 48.4179 42.1389C48.4696 42.1653 48.5207 42.1926 48.5715 42.2212L48.6679 42.2498C48.8854 42.3144 49.0509 42.3632 49.1987 42.3976C49.368 42.4365 49.5135 42.4557 49.6867 42.4557C49.7449 42.4477 49.8005 42.4426 49.8541 42.4377C49.9756 42.4262 50.0852 42.4159 50.1848 42.3786C50.6568 42.2003 51.1053 41.9982 51.5266 41.7697C51.6226 41.7177 51.7171 41.664 51.8103 41.6091C53.4072 40.6673 54.5694 39.3098 55.0578 37.3636C55.6525 34.9753 56.1535 32.5638 56.6361 30.1527C56.7222 29.7289 56.6804 29.1152 56.4221 28.8174C55.6014 27.865 54.7056 26.9724 53.8117 26.0811C53.6745 25.9442 53.5354 25.8057 53.3985 25.6688C53.3481 25.6184 53.2976 25.5679 53.2475 25.5175C53.2392 25.5091 53.2298 25.5024 53.2192 25.4963L53.2157 25.4944C53.2144 25.4937 53.2112 25.4921 53.2099 25.4915C53.1508 25.4632 53.0586 25.4625 52.9368 25.4613C52.8819 25.4606 52.8202 25.4603 52.753 25.4571C52.7469 25.4568 52.7408 25.4564 52.7347 25.4561C52.7138 25.4548 52.6926 25.4535 52.6708 25.4519C52.6569 25.4507 52.6431 25.4497 52.6293 25.4481L52.6216 25.5483L52.6165 25.6158L52.61 25.6977L52.6059 25.7524L52.5994 25.8365L52.5985 25.8481L52.5972 25.8645L52.592 25.9339L52.5818 26.0647L52.5695 26.2221C52.5516 26.4535 52.5339 26.6826 52.5168 26.9133L52.5143 26.948L52.5673 26.9759C53.1678 27.2924 53.68 27.5617 54.1944 27.8313C54.171 27.9392 54.1475 28.0494 54.1241 28.16C54.1147 28.1571 54.1057 28.1542 54.0964 28.1513L54.073 28.1439L54.0675 28.142L54.0466 28.1355L54.0341 28.1314C53.8124 28.0619 53.5907 27.999 53.3693 27.9418C53.0091 27.8489 52.6496 27.7718 52.29 27.7092C52.1493 27.6844 52.0082 27.6619 51.8675 27.6414C51.8543 27.6394 51.8411 27.6375 51.828 27.6356C51.8151 27.634 51.8019 27.632 51.7891 27.6301C51.6198 27.6067 51.4504 27.5858 51.2814 27.5681C50.3756 27.4723 49.4747 27.4579 48.5818 27.4984C48.3315 27.5099 48.0821 27.5257 47.8331 27.5453C47.6998 27.5556 47.5664 27.5671 47.4334 27.5797ZM47.6188 30.5071L53.4078 30.8429L53.4143 30.8413L53.4239 30.839L53.4275 30.8384L53.4226 30.7966C53.4111 30.7002 53.4001 30.6035 53.3908 30.5071H47.6188ZM45.6687 37.7694C46.4007 38.4657 47.078 39.2214 47.7043 40.0588C47.5279 40.0433 47.3508 40.0331 47.1744 40.0228L47.104 40.0186C46.794 40.0003 46.4862 39.9804 46.1857 39.9309C46.0116 39.9023 45.8397 39.864 45.672 39.8107C45.0772 39.0261 45.1627 38.3754 45.6687 37.7694ZM47.266 13.9618C47.7817 14.4734 48.3877 14.8567 49.0316 15.0784L49.4265 15.2143L49.4262 15.5883C49.4258 15.7943 49.2504 19.0649 49.2504 19.0649L48.6839 23.4421L48.6743 23.4431C48.5554 23.4524 48.4365 23.4621 48.317 23.472C48.282 23.4752 48.2469 23.4781 48.2119 23.481L48.0844 23.4916L48.0747 23.4926L52.6393 24.5163L52.6473 24.3524L52.6502 24.2936C52.6608 24.0822 52.6714 23.8679 52.6843 23.616C52.4841 23.5671 52.2855 23.527 52.0876 23.4935L52.0824 23.4929C52.0217 23.4826 51.961 23.4733 51.9003 23.4643L51.8935 23.4633L51.3241 19.0649C51.3241 19.0649 51.096 15.8052 51.0957 15.5996L51.0954 15.2252L51.497 15.0893C52.1528 14.8673 52.7694 14.484 53.2947 13.9718C54.09 13.1965 54.0935 13.183 54.089 11.0337C54.0881 10.5964 54.0797 10.1093 54.0669 9.65595C54.0505 9.08144 54.0264 8.56092 54.0003 8.26338C53.9698 7.91605 53.9101 7.15711 53.8387 6.24651L53.8243 6.06369L53.8239 6.06047C53.6643 4.02368 53.4541 1.34426 53.3783 0.758511L53.3005 0.15798H52.5773V11.4678H51.7017V0.15798H50.6912V11.4678L50.2609 11.4591H49.8233V0.15509H48.8308V11.4591H47.9706V0.15509H47.2602L47.1837 0.7553C47.1355 1.13316 47.0327 2.38242 46.9235 3.76824C46.8634 4.52974 46.8014 5.33238 46.7458 6.05405L46.7455 6.06047C46.669 7.05011 46.6044 7.88713 46.5726 8.25664C46.5266 8.78873 46.4874 10.0348 46.4855 11.0254C46.481 13.1737 46.4846 13.1868 47.266 13.9618ZM51.8148 26.4779C51.8302 26.2472 51.8453 26.0158 51.8646 25.7405L51.8675 25.7016H48.5165L48.5287 25.9172C48.5397 26.11 48.5503 26.2938 48.5605 26.4779C48.565 26.5589 48.5695 26.6401 48.574 26.7218L48.5776 26.787L48.5818 26.8654H51.7891L51.7904 26.8471C51.7981 26.733 51.8051 26.6241 51.8122 26.5155L51.8138 26.4933L51.8148 26.4779ZM5.03653 36.4601C4.7693 36.8167 4.50065 37.1875 4.23309 37.5699C4.56677 37.4783 4.89965 37.3424 5.23067 37.1432C5.16361 36.908 5.09912 36.6808 5.03653 36.4601ZM1.82322 41.4141C1.5253 41.9497 1.2412 42.4892 0.97583 43.0267C1.06409 43.002 1.16174 42.9727 1.27388 42.939L1.27918 42.9377L1.31896 42.9258L1.36526 42.912C1.47405 42.8497 1.5859 42.7954 1.69701 42.7417C1.72362 42.7289 1.75244 42.7147 1.77892 42.7015C1.9317 42.6267 2.0813 42.5489 2.21757 42.449C2.50791 42.2356 2.73787 41.9208 2.80981 41.3151C2.53943 41.3424 2.27216 41.3687 2.0117 41.3951L1.90493 41.406L1.82322 41.4141Z" fill="white"/>
</svg>
