<svg width="14" height="18" viewBox="0 0 14 18" fill="none" xmlns="http://www.w3.org/2000/svg">
<path id="Vector" d="M13.4221 3.81751C13.6804 4.11537 13.7222 4.72907 13.6361 5.15288C13.1534 7.564 12.6525 9.97544 12.0578 12.3638C11.5694 14.3099 10.4072 15.6675 8.81027 16.6092C8.71709 16.6642 8.62263 16.7178 8.52656 16.7699C8.10532 16.9983 7.65676 17.2005 7.18476 17.3788C7.08515 17.4161 6.9759 17.4263 6.85445 17.4379C6.80079 17.4427 6.74488 17.4479 6.68672 17.4559C6.51354 17.4559 6.36798 17.4366 6.19865 17.3977C6.05085 17.3634 5.88538 17.3145 5.66785 17.2499L5.57145 17.2213C5.52068 17.1927 5.4696 17.1654 5.41786 17.1391C5.40662 17.1336 5.39537 17.1278 5.38413 17.1221C5.37352 17.1169 5.36324 17.1118 5.35296 17.1066C5.30958 17.0854 5.26588 17.0642 5.22251 17.0433L5.18749 17.0263C4.85493 16.866 4.53169 16.7021 4.31095 16.357C4.21584 16.2082 4.13969 16.0257 4.08956 15.7957C4.07317 15.7192 4.05968 15.6376 4.04908 15.5505C4.32315 15.5782 4.59145 15.6051 4.85589 15.6315C4.91341 15.6373 4.97092 15.6431 5.02843 15.6488C5.04482 15.6504 5.06089 15.6521 5.07728 15.6537C5.09656 15.6556 5.11551 15.6575 5.13479 15.6594C5.1772 15.6636 5.21962 15.6678 5.26203 15.6723C5.40823 15.6868 5.55314 15.7012 5.69773 15.7154C6.04796 15.7501 6.39465 15.7841 6.74135 15.8175C6.43867 15.5492 6.11768 15.3773 5.78641 15.2646C5.60262 15.2019 5.41594 15.1572 5.22733 15.1245C5.16275 15.1132 5.09752 15.1036 5.03261 15.0946C4.92337 15.0801 4.81412 15.0686 4.70423 15.0589C4.52783 15.0435 4.35079 15.0332 4.17439 15.0229L4.10402 15.0187C3.79396 15.0004 3.48614 14.9805 3.18571 14.931C3.01156 14.9024 2.83967 14.8642 2.67194 14.8109C2.07719 14.0262 2.16266 13.3756 2.66872 12.7696C2.74359 12.6799 2.82778 12.5912 2.91999 12.5035C2.95116 12.474 2.98329 12.4444 3.01606 12.4148C3.60696 12.338 4.2078 12.3262 4.80962 12.3162L4.87292 12.3152C4.93172 12.3143 4.99052 12.3133 5.04932 12.3123C5.49337 12.3046 5.9371 12.2937 6.37794 12.2545C6.83774 12.2134 7.29432 12.1411 7.74319 12.0093C7.32742 11.8603 6.90361 11.7928 6.47338 11.7677C6.01326 11.7407 5.54639 11.7623 5.07567 11.7838C5.05607 11.7844 5.03583 11.7854 5.01623 11.7864C4.93365 11.7902 4.85075 11.7937 4.76817 11.7973C4.1564 11.8223 3.53948 11.8301 2.92352 11.7163C2.85251 11.7031 2.7815 11.6884 2.7105 11.672C2.30468 11.5775 1.89983 11.4252 1.49787 11.1849C1.59201 10.8574 1.68102 10.5448 1.76745 10.2431L1.77002 10.2338C1.77034 10.2325 1.77131 10.2283 1.77195 10.227C1.82496 10.0416 1.87669 9.85978 1.92778 9.68145C1.94192 9.63197 1.95606 9.5828 1.97019 9.53364C2.38565 9.50697 2.78344 9.48063 3.16805 9.45525C3.46397 9.43597 3.75347 9.41701 4.03687 9.39837C4.21745 9.3868 4.39577 9.37524 4.57281 9.36399C4.66953 9.35789 4.76593 9.35178 4.86168 9.34567C5.1907 9.32543 5.51586 9.30583 5.84135 9.28719C6.21825 9.26663 6.59515 9.24735 6.97237 9.22872C7.43506 9.2059 7.89807 9.18406 8.3614 9.16253L8.6689 9.14807C8.87711 9.13811 9.08564 9.12847 9.29385 9.11851L9.36035 9.1153C9.35971 9.07674 9.35907 9.03882 9.35843 9.00091C9.35714 8.92443 9.35618 8.84829 9.35264 8.77117L9.34365 8.76957C9.27681 8.75832 9.20998 8.74418 9.14283 8.72972C8.9796 8.69502 8.81509 8.66032 8.6509 8.66578C8.12395 8.68506 7.59668 8.70916 7.06973 8.73422C6.97559 8.73872 6.88112 8.74321 6.78697 8.74771L6.76094 8.74868L6.75548 8.749C6.44221 8.7641 6.127 8.77888 5.81372 8.79302C5.48598 8.8078 5.15696 8.82162 4.82923 8.83351C4.72994 8.83704 4.63065 8.84058 4.53137 8.84379C4.36204 8.84925 4.19239 8.85407 4.02305 8.85825C3.79974 8.86403 3.57386 8.88202 3.34798 8.90034C2.86858 8.93857 2.38822 8.97713 1.9281 8.89584C1.78865 8.8711 1.65081 8.83543 1.51554 8.78531C1.32982 8.71655 1.1486 8.62048 0.973486 8.48874C0.748247 7.16269 1.01397 6.45355 1.92039 6.1994C2.04474 6.16437 2.18129 6.13802 2.33006 6.12003C2.4663 6.10332 2.61346 6.09336 2.7709 6.09015C3.2834 6.0789 3.79589 6.07151 4.3087 6.06637C4.42373 6.06541 4.53875 6.06444 4.65378 6.06348C5.33239 6.05769 6.01133 6.05576 6.68994 6.05384C6.68962 6.05384 6.69026 6.05384 6.68994 6.05384C6.69283 6.05384 6.69797 6.05384 6.70086 6.05352C6.99968 6.05288 7.29818 6.05191 7.597 6.05063C8.22934 6.04806 8.86136 6.0442 9.49338 6.03617C9.70866 6.03456 9.92233 5.97448 10.136 5.91471C10.2212 5.89094 10.306 5.86716 10.3908 5.84691C10.3924 5.84659 10.3937 5.84627 10.3953 5.84595C10.395 5.84595 10.3956 5.84595 10.3953 5.84595C10.3979 5.84531 10.4011 5.84434 10.4037 5.84402C10.4027 5.84434 10.4043 5.8437 10.4037 5.84402C10.404 5.8437 10.4075 5.84306 10.4078 5.84306C10.4075 5.84306 10.4082 5.84274 10.4078 5.84306C10.4098 5.84274 10.4123 5.84177 10.4143 5.84145C10.4172 5.84049 10.421 5.83985 10.4239 5.8392C10.4252 5.83888 10.4262 5.83888 10.4274 5.83856C10.4258 5.82474 10.4242 5.8106 10.4226 5.79679C10.411 5.70039 10.4001 5.60368 10.3908 5.50729H4.61877H2.33006C2.27865 5.4562 2.23045 5.40607 2.18547 5.35627C1.35841 4.43957 1.62414 3.70859 2.41103 2.83912C2.94666 2.75493 3.48743 2.68007 4.03237 2.62063C4.16571 2.60617 4.29938 2.59235 4.43337 2.57982C4.56639 2.56729 4.69974 2.55572 4.83308 2.54544C5.0821 2.52584 5.33143 2.5101 5.58174 2.49853C6.47466 2.45804 7.37562 2.4725 8.2814 2.56825C8.45041 2.58593 8.61973 2.60681 8.78906 2.63027C8.80192 2.6322 8.81509 2.63412 8.82794 2.63573C8.84112 2.63766 8.85429 2.63959 8.86747 2.64151C9.0082 2.66208 9.14926 2.68457 9.28999 2.70931C9.64954 2.77196 10.0091 2.84908 10.3693 2.94193C10.5907 2.99913 10.8124 3.06211 11.0341 3.13151C11.0382 3.13279 11.0424 3.1344 11.0466 3.13569C11.053 3.13762 11.0591 3.13955 11.0652 3.14147C11.0649 3.14115 11.0659 3.14179 11.0652 3.14147C11.0665 3.14179 11.0701 3.14308 11.0713 3.1434C11.0707 3.14308 11.072 3.1434 11.0713 3.1434C11.0733 3.14372 11.0768 3.145 11.0787 3.14565C11.0848 3.14758 11.0906 3.1495 11.0964 3.15143C11.1057 3.15432 11.1147 3.15722 11.124 3.16011C11.1475 3.04958 11.1709 2.93937 11.1944 2.83141C10.68 2.56183 10.1678 2.29257 9.56728 1.97608L9.51427 1.94812L9.51683 1.91342C9.53386 1.68272 9.55154 1.45363 9.56953 1.22228L9.58142 1.06741L9.59202 0.934063C9.59363 0.910929 9.59556 0.887792 9.59717 0.864657C9.59781 0.859195 9.59813 0.853732 9.59845 0.84827C9.59877 0.844414 9.59909 0.840561 9.59942 0.836705C9.60166 0.808751 9.60359 0.780478 9.60584 0.752524C9.60744 0.734209 9.60873 0.715894 9.61002 0.6979C9.61227 0.670589 9.61419 0.643273 9.61644 0.615962L9.62158 0.548487C9.62415 0.515391 9.62672 0.48198 9.62929 0.448242C9.64311 0.449849 9.65693 0.450812 9.67075 0.452097C9.69259 0.453704 9.7138 0.454985 9.73468 0.456271C9.74079 0.456592 9.74689 0.456918 9.753 0.457239C9.82015 0.460452 9.88152 0.46077 9.93647 0.461412C10.0582 0.462698 10.1508 0.463338 10.2099 0.491614C10.2112 0.492256 10.2125 0.492902 10.2138 0.493544C10.2131 0.493223 10.2144 0.493866 10.2138 0.493544C10.2144 0.493866 10.2167 0.494829 10.217 0.49515C10.2163 0.494829 10.2176 0.495471 10.217 0.49515C10.2276 0.501255 10.2391 0.509288 10.2475 0.517642C10.2976 0.568088 10.3481 0.618534 10.3985 0.66898C10.5354 0.805858 10.6726 0.942737 10.8098 1.07962C11.7037 1.97093 12.6014 2.86514 13.4221 3.81751Z" fill="white"/>
</svg>
