<svg width="13" height="18" viewBox="0 0 13 18" fill="none" xmlns="http://www.w3.org/2000/svg">
<path id="Vector" d="M3.02983 3.16039C3.53229 2.89531 4.03232 2.63022 4.62392 2.3163C4.60335 2.03515 4.58189 1.75658 4.56011 1.47318L4.55439 1.39928C4.54134 1.22963 4.52817 1.05805 4.51499 0.882935C4.40498 0.893538 4.30553 0.894819 4.22321 0.895461C4.07885 0.897068 3.97866 0.898032 3.92834 0.949441C3.75072 1.12873 3.57233 1.30803 3.39387 1.487C2.79032 2.09299 2.185 2.70059 1.60597 3.32811L1.58839 3.34707C1.35968 3.59512 1.13499 3.84671 0.915919 4.1028C0.840765 4.18987 0.784921 4.30554 0.745978 4.43567L0.745721 4.427C0.655208 4.7226 0.652958 5.09501 0.710152 5.37808C1.04682 7.07236 1.39284 8.76631 1.77678 10.4519C1.86726 10.8491 1.95986 11.2459 2.05494 11.642C2.10516 11.8512 2.15605 12.0601 2.20769 12.2689C2.30341 12.6532 2.42641 13.0134 2.57466 13.3511C3.10428 14.557 3.95639 15.4753 5.03986 16.1722C5.11289 16.2191 5.18695 16.2651 5.26208 16.3101C5.37505 16.3779 5.49033 16.4434 5.60787 16.5067C5.95759 16.695 6.32696 16.864 6.71347 17.016C6.75267 17.0314 6.79203 17.0468 6.83159 17.0616C6.87107 17.0767 6.91227 17.087 6.95523 17.095C6.97797 17.0992 7.00124 17.1027 7.02498 17.1056C7.05461 17.1095 7.085 17.1127 7.11627 17.1156C7.12665 17.1166 7.13712 17.1175 7.14769 17.1185C7.19855 17.1233 7.2518 17.1284 7.30716 17.1358C7.53686 17.1358 7.7158 17.0998 7.97571 17.0266C8.24108 16.489 8.52519 15.9496 8.8231 15.4139L8.68594 15.4277C8.50347 15.4461 8.32263 15.4641 8.14279 15.482C7.84555 15.5116 7.551 15.5405 7.25617 15.5694C7.83472 15.0534 8.48393 14.9107 9.14304 14.8494C9.64528 13.9789 10.1799 13.1243 10.7257 12.3104C10.4047 12.2709 10.0807 12.2509 9.75539 12.2394C9.52784 12.2313 9.29955 12.2272 9.07113 12.2236L9.02537 12.223C8.38031 12.2127 7.73222 12.2018 7.09654 12.1047C7.03257 12.0948 6.96875 12.0842 6.90501 12.0726L6.89662 12.071C6.69802 12.0347 6.50057 11.9887 6.30467 11.9309C6.52078 11.8528 6.7393 11.7982 6.95992 11.7609C6.9996 11.7542 7.03938 11.7481 7.07919 11.7423C7.65369 11.6607 8.2416 11.688 8.83593 11.7153C9.10621 11.7278 9.37782 11.7404 9.65016 11.7426C10.1766 11.7471 10.7057 11.714 11.233 11.5697C11.5005 11.1874 11.7692 10.8166 12.0364 10.4599L11.9745 10.2415C11.9092 10.0114 11.8449 9.78454 11.7825 9.56509C11.3881 9.53938 11.008 9.514 10.6428 9.4899L10.6238 9.48862C10.3494 9.4703 10.0818 9.45263 9.81882 9.43528C9.23284 9.39704 8.66984 9.36138 8.10636 9.32924C8.03159 9.32507 7.95682 9.32089 7.88205 9.31704C7.77804 9.31125 7.67403 9.30579 7.57002 9.30033C6.9523 9.2682 6.33397 9.23896 5.71541 9.20972L5.42524 9.19623C5.23483 9.18691 5.04262 9.17791 4.85215 9.16891L4.82994 9.16763L4.76995 9.16474C4.77079 9.12843 4.77134 9.09212 4.77188 9.05581C4.77297 8.98288 4.77407 8.91026 4.77738 8.83636C4.8436 8.82543 4.91005 8.81129 4.97665 8.79683C5.13153 8.76374 5.28752 8.73064 5.44323 8.73578C6.04267 8.75795 6.64208 8.78655 7.24167 8.81547C8.10542 8.8566 8.96949 8.89805 9.83443 8.9199C10.0464 8.92504 10.2606 8.94239 10.475 8.95974C11.2573 9.02304 12.0423 9.08633 12.7281 8.56645C12.9586 7.19927 12.647 6.51842 11.6141 6.32916C11.5576 6.31888 11.499 6.30988 11.4381 6.30249C11.3087 6.28643 11.1694 6.27711 11.0198 6.2739C9.77946 6.24658 8.53913 6.24305 7.29877 6.2392C6.88351 6.23791 6.46821 6.23662 6.05292 6.23437H6.04129C5.57449 6.2318 5.10772 6.22827 4.64092 6.22248C4.56078 6.22184 4.48081 6.21253 4.40096 6.19807C4.27844 6.17558 4.15628 6.14119 4.03421 6.10681C3.94193 6.08079 3.84975 6.05476 3.75757 6.03388C3.76994 5.92849 3.78231 5.82277 3.7922 5.71738H11.4409C12.389 4.77273 12.1513 4.04367 11.3642 3.16778C11.3636 3.16746 11.3648 3.16778 11.3642 3.16778C10.6167 3.04954 9.85632 2.94993 9.09134 2.88856C8.84589 2.86896 8.59967 2.85321 8.35277 2.84197C7.34739 2.7957 6.33089 2.82398 5.30937 2.9676C5.21645 2.98078 5.12346 2.99491 5.03044 3.00969C4.99735 3.01516 4.96425 3.02062 4.93116 3.02608C4.56711 3.08777 4.20255 3.16457 3.83773 3.25839C3.67473 3.30016 3.51167 3.34579 3.3486 3.39463C3.29179 3.41166 3.23499 3.429 3.17818 3.447C3.1509 3.45567 3.12365 3.46435 3.09637 3.47302C3.0742 3.36795 3.052 3.26289 3.02983 3.16039Z" fill="white"/>
</svg>
