<svg width="32" height="44" viewBox="0 0 32 44" fill="none" xmlns="http://www.w3.org/2000/svg">
<path id="Vector" fill-rule="evenodd" clip-rule="evenodd" d="M22.1253 43.1496C21.564 43.4876 17.8178 41.7191 17.8178 41.7191C17.8178 41.7191 11.2634 38.6721 7.95452 37.1337L7.90375 37.1102C5.42034 35.9554 2.9224 34.7942 0.40502 33.624C0.118024 33.49 -0.00359236 33.1468 0.137463 32.8641L0.217759 32.6986C0.353963 32.4258 0.682311 32.3114 0.95716 32.438C3.67819 33.6953 6.38042 34.9433 9.08586 36.1929L9.18675 36.2395L9.19992 36.2452C11.9536 37.517 14.7114 38.7907 17.4965 40.0775C17.4859 39.4921 17.1103 39.3298 16.7899 39.1917C16.7424 39.1711 16.6961 39.1512 16.6527 39.1303C14.7621 38.2181 12.8606 37.3338 10.9588 36.4493L10.5864 36.2761C8.60293 35.3523 6.61947 34.4314 4.63826 33.5115L4.58814 33.4881C3.37937 32.9267 2.17117 32.3657 0.964453 31.805C0.689603 31.6781 0.563137 31.3542 0.682311 31.0766C0.78407 30.8417 0.888527 30.6091 0.992246 30.3781C1.72905 28.7378 2.4288 27.1798 1.85953 25.4122C1.79386 25.2101 1.83277 24.9862 1.97871 24.8326C2.07163 24.7362 2.16394 24.642 2.25507 24.5489C2.63392 24.1614 2.99312 23.7944 3.29711 23.386C3.37422 23.2832 3.45359 23.1794 3.53392 23.0753C3.977 22.4986 4.43873 21.898 4.60549 21.2381C4.71827 20.7886 4.83844 20.34 4.95829 19.8908C5.47592 17.9562 5.99516 16.0158 5.93604 13.9761C5.93379 13.8987 5.92994 13.8209 5.92576 13.7432C5.91034 13.4553 5.89459 13.1664 5.98456 12.902C6.10858 12.5392 6.5732 12.4345 6.86752 12.6803L7.78455 13.4466L7.93717 13.5745L8.90592 14.3839L9.72302 15.067C9.81074 15.1402 9.87371 15.235 9.90552 15.3446C10.268 16.6452 10.9344 18.2158 12.6392 19.1023C12.4175 18.7331 12.1598 18.3832 11.9012 18.032C11.317 17.2393 10.7284 16.4406 10.5379 15.3957C10.4942 15.1547 10.5986 14.9063 10.8152 14.7871C10.8364 14.7752 10.8576 14.7636 10.8788 14.7518C11.5262 14.3945 12.2357 14.0028 12.4571 12.8194C11.8999 13.3014 11.5182 13.6301 11.1557 13.9421C11.0754 14.0124 10.9758 14.0587 10.8711 14.0757C9.46758 14.29 8.57497 13.8566 7.59722 12.3882C7.39287 12.0839 7.53168 11.6623 7.87933 11.5431L8.4728 11.3336C8.64084 11.2752 8.83041 11.3022 8.97886 11.4018C9.40942 11.699 9.81299 11.9743 10.2191 12.2494L10.426 12.0839L9.88849 11.3214C9.74487 11.1171 9.74744 10.8369 9.91034 10.647C10.7737 9.63134 11.8636 9.04205 13.279 8.99578C14.5999 8.95209 15.6017 8.46241 16.2803 7.17909C16.6611 6.46032 17.3056 5.86846 17.9328 5.29267C18.0431 5.19146 18.1526 5.09056 18.2603 4.98967C18.9125 4.37918 19.5992 3.80564 20.2855 3.2321C20.5821 2.98437 20.8783 2.73664 21.1717 2.48634C21.1437 2.43396 21.1151 2.38223 21.0865 2.3305C21.066 2.29291 21.0454 2.25563 21.0252 2.21804C21.0171 2.20358 21.0094 2.18912 21.0017 2.17434L21.0139 2.17113C23.3617 1.50248 25.7095 0.833829 28.077 0.16036C28.4079 0.0655729 28.7482 0.292099 28.7922 0.63301C28.8594 1.18213 28.9227 1.72258 28.985 2.2566C29.1768 3.89978 29.3616 5.4816 29.6385 7.0451C29.8165 8.04984 30.1597 9.0157 30.4984 9.96936C30.8823 11.0499 31.2608 12.1151 31.3874 13.204C31.4019 13.3524 31.363 13.506 31.2657 13.6182C30.6918 14.2862 30.0733 14.1509 29.4936 14.0243C29.4246 14.0092 29.3561 13.9944 29.2883 13.9809C29.0914 13.942 28.887 14.0102 28.7533 14.1586C28.3372 14.6165 28.3739 15.1473 28.5782 15.7077C28.7896 16.2992 28.6997 16.7815 28.0259 17.1783C27.6303 17.1423 27.2213 17.1054 26.8036 17.0674L26.767 17.0639L26.7567 17.063L26.7435 17.062C26.053 16.9993 25.3407 16.9347 24.628 16.8692C25.1595 17.4585 25.812 17.5102 26.4582 17.5613C26.6102 17.5735 26.7622 17.5857 26.9119 17.6047C27.3765 17.6654 27.7949 17.7531 28.0211 18.094C28.2254 18.4009 28.0333 18.8247 27.6757 18.9172L27.3791 18.9953C27.104 19.0657 26.9267 19.3337 26.963 19.6161C26.9836 19.7742 27.0086 19.9319 27.0337 20.09C27.1799 21.0154 27.3274 21.9495 26.6128 22.933C26.5202 23.0596 26.3743 23.1351 26.2188 23.1499C25.8487 23.1823 25.4557 23.2174 25.0486 23.254C24.3919 23.3128 23.6956 23.3748 23.0009 23.4349C22.6738 23.4615 22.3435 23.475 22.0135 23.4882C21.2999 23.5171 20.5862 23.5457 19.9047 23.7125C18.2651 24.1067 17.2851 25.2175 17.0078 26.9295C16.5772 29.5838 16.6357 32.2359 16.9153 34.9002C17.2565 34.4436 17.2369 33.9373 17.2163 33.4065C17.2105 33.2519 17.2044 33.0954 17.2073 32.9373C17.217 32.4843 17.7471 32.2189 18.1022 32.4991C19.8581 33.8904 19.9918 35.9673 20.1364 38.211C20.155 38.5005 20.174 38.7926 20.1965 39.0866C21.235 36.1861 20.0773 33.1028 17.5794 31.4397C17.4236 31.335 17.324 31.1621 17.324 30.9719V30.317C17.3943 30.3119 17.458 30.3039 17.5164 30.2962C17.6308 30.2814 17.725 30.2692 17.8104 30.2901C19.3768 30.6798 20.4105 31.6711 21.0065 33.1539C21.814 35.1631 22.2056 37.2477 22.1253 39.4153C22.1247 39.4346 22.124 39.4539 22.1234 39.4735C22.1012 40.1238 22.7442 40.8047 22.8843 41.4023C23.024 41.9999 22.6867 42.8112 22.1253 43.1496ZM26.2699 13.9613C26.0267 13.9128 25.8467 13.7056 25.8223 13.4598C25.7128 12.3249 25.9001 12.1495 27.2159 11.4432C27.1188 11.5962 27.0292 11.7379 26.944 11.8722L26.9418 11.876C26.757 12.1671 26.5954 12.4219 26.4328 12.678C26.2821 12.9142 26.3306 13.2236 26.5424 13.4061L27.0918 13.8762C27.0799 13.9163 27.0684 13.9565 27.0568 13.9967C27.0452 14.0368 27.0337 14.077 27.0215 14.1172L26.2699 13.9613ZM20.9018 40.9981C20.8166 40.9178 20.7122 40.8641 20.5978 40.8471C20.3742 40.8146 20.1451 40.7809 19.9128 40.7468L19.8768 40.7414L19.872 40.7407C19.4928 40.6851 19.1053 40.6279 18.7175 40.572C18.7175 40.4769 18.7201 40.3844 18.7223 40.2896L18.7226 40.2822C20.9821 40.0753 21.4904 40.3137 21.9428 41.9941C21.7526 41.8116 21.5849 41.6516 21.4274 41.5013C21.2452 41.3274 21.075 41.1652 20.9018 40.9981ZM25.8127 7.48594C24.6499 7.65881 23.5458 7.41782 22.4537 7.07916C21.3616 6.74082 21.4406 6.48345 21.4406 6.48345C21.4406 6.48345 21.9823 6.02076 22.4537 5.75504C22.9247 5.48931 23.408 5.35115 23.9076 5.17282C24.8584 4.83384 25.8461 4.48168 26.9048 4.10317C25.6466 3.48465 24.6862 3.93962 23.7428 4.38657C23.1487 4.66772 22.5617 4.94597 21.9113 4.95079C23.8594 3.14374 25.6909 2.75913 27.5883 3.7915C27.9456 3.98622 28.0089 4.50257 27.6757 4.73391C27.2213 5.04944 27.0182 5.56578 26.8107 6.09306C26.6369 6.53389 26.4601 6.98277 26.1311 7.32753C26.0485 7.41525 25.9319 7.46891 25.8127 7.48594Z" fill="white"/>
</svg>
